<svg xmlns="http://www.w3.org/2000/svg" xmlns:xlink="http://www.w3.org/1999/xlink" width="1920" zoomAndPan="magnify" viewBox="0 0 1440 374.999991" height="500" preserveAspectRatio="xMidYMid meet" version="1.0"><defs><g/><clipPath id="0539b5f67e"><path d="M 27.84375 1.46875 L 375 1.46875 L 375 348.625 L 27.84375 348.625 Z M 27.84375 1.46875 " clip-rule="nonzero"/></clipPath><clipPath id="84eed594f8"><path d="M 201.421875 1.46875 L 258.746094 36.652344 L 324.160156 52.308594 L 339.816406 117.722656 L 375 175.046875 L 339.816406 232.371094 L 324.160156 297.785156 L 258.746094 313.441406 L 201.421875 348.625 L 144.097656 313.441406 L 78.683594 297.785156 L 63.027344 232.371094 L 27.84375 175.046875 L 63.027344 117.722656 L 78.683594 52.308594 L 144.097656 36.652344 Z M 201.421875 1.46875 " clip-rule="nonzero"/></clipPath><clipPath id="1c11f9ac8b"><path d="M 0 173.578125 L 201.421875 173.578125 L 201.421875 375 L 0 375 Z M 0 173.578125 " clip-rule="nonzero"/></clipPath><clipPath id="bb77d70b61"><path d="M 100.710938 173.578125 C 45.089844 173.578125 0 218.667969 0 274.289062 C 0 329.910156 45.089844 375 100.710938 375 C 156.332031 375 201.421875 329.910156 201.421875 274.289062 C 201.421875 218.667969 156.332031 173.578125 100.710938 173.578125 Z M 100.710938 173.578125 " clip-rule="nonzero"/></clipPath><clipPath id="c37ca02d4f"><path d="M 235.316406 0 L 366.601562 0 L 366.601562 131.285156 L 235.316406 131.285156 Z M 235.316406 0 " clip-rule="nonzero"/></clipPath><clipPath id="46f91c6115"><path d="M 300.957031 0 L 321.84375 44.753906 L 366.601562 65.644531 L 321.84375 86.53125 L 300.957031 131.285156 L 280.070312 86.53125 L 235.316406 65.644531 L 280.070312 44.753906 Z M 300.957031 0 " clip-rule="nonzero"/></clipPath></defs><g clip-path="url(#0539b5f67e)"><g clip-path="url(#84eed594f8)"><path fill="#af145a" d="M 27.84375 1.46875 L 375 1.46875 L 375 348.625 L 27.84375 348.625 Z M 27.84375 1.46875 " fill-opacity="1" fill-rule="nonzero"/></g></g><g clip-path="url(#1c11f9ac8b)"><g clip-path="url(#bb77d70b61)"><path fill="#efb714" d="M 0 173.578125 L 201.421875 173.578125 L 201.421875 375 L 0 375 Z M 0 173.578125 " fill-opacity="1" fill-rule="nonzero"/></g></g><g clip-path="url(#c37ca02d4f)"><g clip-path="url(#46f91c6115)"><path fill="#e6ac00" d="M 235.316406 0 L 366.601562 0 L 366.601562 131.285156 L 235.316406 131.285156 Z M 235.316406 0 " fill-opacity="1" fill-rule="nonzero"/></g></g><g fill="#000000" fill-opacity="1"><g transform="translate(396.238438, 353.967724)"><g><path d="M 83.910156 -197.132812 L 13.445312 -197.132812 L 13.445312 0 L 69.65625 0 L 69.65625 -84.445312 L 83.910156 -84.445312 C 94.398438 -84.445312 104.347656 -85.253906 113.761719 -87.136719 C 123.175781 -89.019531 131.511719 -92.246094 138.503906 -96.550781 C 145.496094 -100.851562 150.875 -106.769531 155.179688 -114.03125 C 159.210938 -121.292969 161.363281 -130.167969 161.363281 -140.925781 C 161.363281 -151.414062 159.210938 -160.289062 155.179688 -167.550781 C 150.875 -174.542969 145.496094 -180.457031 138.503906 -184.761719 C 131.511719 -189.066406 123.175781 -192.292969 113.761719 -194.175781 C 104.347656 -196.058594 94.398438 -197.132812 83.910156 -197.132812 Z M 69.65625 -112.6875 L 69.65625 -168.894531 C 75.570312 -168.894531 80.683594 -168.085938 85.253906 -166.472656 C 89.824219 -164.859375 93.589844 -162.707031 96.550781 -160.019531 C 99.507812 -157.328125 101.660156 -154.371094 103.273438 -151.144531 C 104.886719 -147.648438 105.691406 -144.152344 105.691406 -140.65625 C 105.691406 -136.890625 104.886719 -133.394531 103.273438 -130.167969 C 101.660156 -126.941406 99.507812 -123.980469 96.550781 -121.292969 C 93.589844 -118.601562 89.824219 -116.71875 85.253906 -115.105469 C 80.683594 -113.492188 75.570312 -112.6875 69.65625 -112.6875 Z M 69.65625 -112.6875 "/></g></g></g><g fill="#000000" fill-opacity="1"><g transform="translate(565.670153, 353.967724)"><g><path d="M 182.339844 -197.132812 L 126.132812 -197.132812 L 126.132812 -119.679688 L 69.65625 -119.679688 L 69.65625 -197.132812 L 13.445312 -197.132812 L 13.445312 0 L 69.65625 0 L 69.65625 -91.441406 L 126.132812 -91.441406 L 126.132812 0 L 182.339844 0 Z M 182.339844 -197.132812 "/></g></g></g><g fill="#000000" fill-opacity="1"><g transform="translate(761.457908, 353.967724)"><g><path d="M 101.929688 -56.207031 L 118.066406 0 L 174.273438 0 L 118.066406 -197.132812 L 61.585938 -197.132812 L 5.378906 0 L 47.601562 0 L 63.738281 -56.207031 Z M 93.859375 -84.445312 L 71.808594 -84.445312 L 82.832031 -123.175781 Z M 93.859375 -84.445312 "/></g></g></g><g fill="#000000" fill-opacity="1"><g transform="translate(941.109314, 353.967724)"><g><path d="M 111.070312 -154.910156 L 160.289062 -154.910156 L 153.296875 -197.132812 L 12.371094 -197.132812 L 5.378906 -154.910156 L 54.59375 -154.910156 L 54.59375 0 L 111.070312 0 Z M 111.070312 -154.910156 "/></g></g></g><g fill="#000000" fill-opacity="1"><g transform="translate(1106.775916, 353.967724)"><g/></g></g><g fill="#000000" fill-opacity="1"><g transform="translate(1187.457673, 353.967724)"><g><path d="M 83.910156 -197.132812 L 13.445312 -197.132812 L 13.445312 0 L 69.65625 0 L 69.65625 -84.445312 L 83.910156 -84.445312 C 94.398438 -84.445312 104.347656 -85.253906 113.761719 -87.136719 C 123.175781 -89.019531 131.511719 -92.246094 138.503906 -96.550781 C 145.496094 -100.851562 150.875 -106.769531 155.179688 -114.03125 C 159.210938 -121.292969 161.363281 -130.167969 161.363281 -140.925781 C 161.363281 -151.414062 159.210938 -160.289062 155.179688 -167.550781 C 150.875 -174.542969 145.496094 -180.457031 138.503906 -184.761719 C 131.511719 -189.066406 123.175781 -192.292969 113.761719 -194.175781 C 104.347656 -196.058594 94.398438 -197.132812 83.910156 -197.132812 Z M 69.65625 -112.6875 L 69.65625 -168.894531 C 75.570312 -168.894531 80.683594 -168.085938 85.253906 -166.472656 C 89.824219 -164.859375 93.589844 -162.707031 96.550781 -160.019531 C 99.507812 -157.328125 101.660156 -154.371094 103.273438 -151.144531 C 104.886719 -147.648438 105.691406 -144.152344 105.691406 -140.65625 C 105.691406 -136.890625 104.886719 -133.394531 103.273438 -130.167969 C 101.660156 -126.941406 99.507812 -123.980469 96.550781 -121.292969 C 93.589844 -118.601562 89.824219 -116.71875 85.253906 -115.105469 C 80.683594 -113.492188 75.570312 -112.6875 69.65625 -112.6875 Z M 69.65625 -112.6875 "/></g></g></g><g fill="#000000" fill-opacity="1"><g transform="translate(1356.889388, 353.967724)"><g><path d="M 13.445312 -197.132812 L 13.445312 0 L 69.65625 0 L 69.65625 -197.132812 Z M 13.445312 -197.132812 "/></g></g></g></svg>