<svg xmlns="http://www.w3.org/2000/svg" xmlns:xlink="http://www.w3.org/1999/xlink" width="500" zoomAndPan="magnify" viewBox="0 0 375 374.999991" height="500" preserveAspectRatio="xMidYMid meet" version="1.0"><defs><clipPath id="e646114cee"><path d="M 50.691406 28.089844 L 348.171875 28.089844 L 348.171875 325.570312 L 50.691406 325.570312 Z M 50.691406 28.089844 " clip-rule="nonzero"/></clipPath><clipPath id="f87bf2f199"><path d="M 199.429688 28.089844 L 248.550781 58.238281 L 304.605469 71.652344 L 318.023438 127.707031 L 348.171875 176.828125 L 318.023438 225.953125 L 304.605469 282.003906 L 248.550781 295.421875 L 199.429688 325.570312 L 150.308594 295.421875 L 94.253906 282.003906 L 80.839844 225.953125 L 50.691406 176.828125 L 80.839844 127.707031 L 94.253906 71.652344 L 150.308594 58.238281 Z M 199.429688 28.089844 " clip-rule="nonzero"/></clipPath><clipPath id="9f6f8c7034"><path d="M 26.828125 175.570312 L 199.429688 175.570312 L 199.429688 348.171875 L 26.828125 348.171875 Z M 26.828125 175.570312 " clip-rule="nonzero"/></clipPath><clipPath id="97c1acf37e"><path d="M 113.128906 175.570312 C 65.46875 175.570312 26.828125 214.207031 26.828125 261.871094 C 26.828125 309.53125 65.46875 348.171875 113.128906 348.171875 C 160.792969 348.171875 199.429688 309.53125 199.429688 261.871094 C 199.429688 214.207031 160.792969 175.570312 113.128906 175.570312 Z M 113.128906 175.570312 " clip-rule="nonzero"/></clipPath><clipPath id="fd551566fa"><path d="M 228.472656 26.828125 L 340.972656 26.828125 L 340.972656 139.328125 L 228.472656 139.328125 Z M 228.472656 26.828125 " clip-rule="nonzero"/></clipPath><clipPath id="87c521ae0e"><path d="M 284.722656 26.828125 L 302.621094 65.179688 L 340.972656 83.078125 L 302.621094 100.976562 L 284.722656 139.328125 L 266.824219 100.976562 L 228.472656 83.078125 L 266.824219 65.179688 Z M 284.722656 26.828125 " clip-rule="nonzero"/></clipPath></defs><g clip-path="url(#e646114cee)"><g clip-path="url(#f87bf2f199)"><path fill="#af145a" d="M 50.691406 28.089844 L 348.171875 28.089844 L 348.171875 325.570312 L 50.691406 325.570312 Z M 50.691406 28.089844 " fill-opacity="1" fill-rule="nonzero"/></g></g><g clip-path="url(#9f6f8c7034)"><g clip-path="url(#97c1acf37e)"><path fill="#efb714" d="M 26.828125 175.570312 L 199.429688 175.570312 L 199.429688 348.171875 L 26.828125 348.171875 Z M 26.828125 175.570312 " fill-opacity="1" fill-rule="nonzero"/></g></g><g clip-path="url(#fd551566fa)"><g clip-path="url(#87c521ae0e)"><path fill="#e6ac00" d="M 228.472656 26.828125 L 340.972656 26.828125 L 340.972656 139.328125 L 228.472656 139.328125 Z M 228.472656 26.828125 " fill-opacity="1" fill-rule="nonzero"/></g></g></svg>