<?xml version="1.0" standalone="no"?>
<!DOCTYPE svg PUBLIC "-//W3C//DTD SVG 20010904//EN"
 "http://www.w3.org/TR/2001/REC-SVG-20010904/DTD/svg10.dtd">
<svg version="1.0" xmlns="http://www.w3.org/2000/svg"
 width="512.000000pt" height="512.000000pt" viewBox="0 0 512.000000 512.000000"
 preserveAspectRatio="xMidYMid meet">
<metadata>
Created by potrace 1.16, written by Peter Selinger 2001-2019
</metadata>
<g transform="translate(0.000000,512.000000) scale(0.100000,-0.100000)"
fill="#ffffff" stroke="none">
<path d="M2335 5034 c-16 -2 -66 -9 -110 -15 -147 -19 -248 -87 -306 -205 -25
-50 -34 -86 -44 -181 -20 -176 -62 -270 -170 -372 -141 -134 -354 -173 -531
-98 -33 14 -86 37 -119 51 -115 49 -270 31 -373 -44 -97 -70 -286 -363 -398
-616 -49 -109 -49 -109 -49 -219 0 -101 2 -115 28 -165 35 -68 85 -121 157
-167 164 -104 251 -259 251 -443 0 -185 -79 -325 -246 -440 -88 -60 -126 -100
-162 -170 -26 -50 -28 -64 -28 -165 l0 -110 57 -129 c102 -228 293 -522 386
-592 101 -78 260 -98 377 -48 33 14 86 37 119 51 259 110 564 -27 668 -299 11
-29 26 -105 33 -169 9 -83 20 -133 38 -172 54 -118 161 -195 307 -219 103 -18
558 -17 670 0 217 34 332 155 353 372 5 52 17 124 28 160 37 132 143 255 272
315 133 63 272 67 403 12 33 -14 86 -37 119 -51 120 -51 280 -29 383 53 112
88 351 481 423 694 17 50 20 79 17 152 -6 143 -53 219 -193 315 -167 115 -246
255 -246 440 0 185 79 326 247 440 82 56 123 100 162 173 25 48 27 61 27 162
l0 110 -53 119 c-61 139 -150 295 -237 421 -96 137 -138 180 -213 217 -58 29
-79 33 -158 36 -98 4 -78 9 -275 -74 -225 -95 -483 -12 -621 201 -47 73 -73
158 -86 292 -8 84 -16 112 -42 162 -59 110 -156 178 -290 201 -63 12 -515 22
-575 14z m430 -1774 c246 -78 419 -252 497 -500 33 -108 33 -292 0 -400 -98
-311 -350 -510 -668 -527 -399 -22 -740 288 -761 692 -11 210 63 399 213 549
102 103 223 169 368 202 88 20 261 12 351 -16z"/>
</g>
</svg>
