<?xml version="1.0" standalone="no"?>
<!DOCTYPE svg PUBLIC "-//W3C//DTD SVG 20010904//EN"
 "http://www.w3.org/TR/2001/REC-SVG-20010904/DTD/svg10.dtd">
<svg version="1.0" xmlns="http://www.w3.org/2000/svg"
 width="512.000000pt" height="512.000000pt" viewBox="0 0 512.000000 512.000000"
 preserveAspectRatio="xMidYMid meet">
<metadata>
Created by potrace 1.16, written by Peter Selinger 2001-2019
</metadata>
<g transform="translate(0.000000,512.000000) scale(0.100000,-0.100000)"
fill="#ffffff" stroke="none">
<path d="M2310 5114 c-447 -54 -825 -190 -1167 -420 -164 -110 -255 -185 -393
-324 -139 -138 -214 -229 -324 -393 -204 -302 -340 -651 -403 -1032 -26 -158
-26 -612 0 -770 63 -381 199 -730 403 -1032 110 -164 185 -255 324 -393 138
-139 229 -214 393 -324 302 -204 651 -340 1032 -403 88 -14 166 -18 385 -18
219 0 297 4 385 18 381 63 730 199 1032 403 164 110 255 185 393 324 139 138
214 229 324 393 204 302 340 651 403 1032 26 158 26 612 0 770 -63 381 -199
730 -403 1032 -110 164 -185 255 -324 393 -138 139 -229 214 -393 324 -295
199 -631 332 -1002 398 -85 15 -169 20 -370 23 -143 1 -276 1 -295 -1z m450
-795 c274 -68 488 -296 546 -581 20 -97 15 -268 -11 -363 -68 -251 -271 -453
-531 -527 -112 -32 -296 -32 -408 0 -211 60 -384 201 -475 387 -53 107 -71
179 -78 311 -27 525 440 902 957 773z m57 -2014 c468 -61 912 -241 1124 -455
75 -76 135 -184 145 -263 7 -46 5 -49 -52 -124 -178 -234 -420 -431 -684 -557
-508 -244 -1072 -244 -1578 -1 -266 128 -510 326 -686 557 -57 76 -59 79 -52
125 10 79 70 187 145 263 210 212 648 390 1119 455 135 18 377 18 519 0z"/>
</g>
</svg>
